<?xml version="1.0" encoding="utf-8"?>
<!-- Generator: Adobe Illustrator 23.1.1, SVG Export Plug-In . SVG Version: 6.00 Build 0)  -->
<svg version="1.1" id="圖層_1" xmlns="http://www.w3.org/2000/svg" xmlns:xlink="http://www.w3.org/1999/xlink" x="0px" y="0px"
	 viewBox="0 0 120 120" style="enable-background:new 0 0 120 120;" xml:space="preserve">
<style type="text/css">
	.st0{fill:#6ACC6C;}
	.st1{fill:#FFFFDC;}
	.st2{fill:none;stroke:#111111;stroke-width:3;stroke-linecap:round;stroke-linejoin:round;}
	.st3{fill:none;stroke:#111111;stroke-width:2;stroke-linecap:round;stroke-linejoin:round;}
	.st4{fill:#6ACC6C;stroke:#111111;stroke-width:3;stroke-linecap:round;stroke-linejoin:round;}
	.st5{fill:#FFFFFF;}
	.st6{fill:#EBEBCA;}
	.st7{fill:none;stroke:#EBEBCA;stroke-width:2;stroke-linecap:round;stroke-linejoin:round;}
	.st8{fill:#111111;}
	.st9{fill:#FFFFFF;stroke:#111111;stroke-width:3;stroke-linecap:round;stroke-linejoin:round;}
	.st10{fill:none;stroke:#6ACC6C;stroke-linecap:round;stroke-linejoin:round;}
	.st11{fill:none;}
</style>
<title>frog_icon</title>
<g>
	<g>
		<path class="st0" d="M84.1,40.2v57.3h7.8C91.9,80.6,92.8,49.1,84.1,40.2z"/>
		<path class="st0" d="M35.9,40.2c-8.8,8.9-7.8,40.3-7.8,57.3h7.8V40.2z"/>
		<rect x="35.9" y="40.3" class="st1" width="48.1" height="57.2"/>
		<polyline class="st2" points="35.9,97.5 35.9,40.3 84.1,40.3 84.1,97.5 		"/>
		<polyline class="st3" points="69,61 60,79 51,61 		"/>
		<path class="st4" d="M93,38.5c3.9-5.4,2.6-12.9-2.8-16.7s-12.9-2.6-16.7,2.8c-0.4,0.6-0.8,1.2-1.1,1.9c-8.2-1.8-16.6-1.8-24.8,0
			c-2.8-6-10-8.6-16-5.8s-8.6,10-5.8,16c0.3,0.7,0.7,1.3,1.1,1.9c-1.9,2.6-3,5.8-3,9C24,60,40.1,40,60,40s36,20,36,7.6
			C96,44.3,94.9,41.2,93,38.5z"/>
		<circle class="st5" cx="83.2" cy="31.5" r="7.5"/>
		<circle class="st5" cx="36.8" cy="31.5" r="7.5"/>
		<path class="st1" d="M60,40.1c-19.9,0-36,19.9-36,7.5C24,60,40.1,67.5,60,67.5S96,60,96,47.6C96,60,79.9,40.1,60,40.1z"/>
		<path class="st6" d="M91.9,51.4c-6,6.4-18,10.1-31.9,10.1s-25.9-3.7-31.9-10.1c-2.6,0.7-4.1-0.1-4.1-3.8C24,60,40.1,67.5,60,67.5
			S96,60,96,47.6C96,51.3,94.5,52.1,91.9,51.4z"/>
		<path class="st2" d="M60,40.1c-19.9,0-36,19.9-36,7.5C24,60,40.1,67.5,60,67.5S96,60,96,47.6C96,60,79.9,40.1,60,40.1z"/>
		<path class="st7" d="M63.5,45c-2.3-0.6-4.8-0.6-7.1,0"/>
		<circle class="st8" cx="36.8" cy="31.5" r="6"/>
		<circle class="st5" cx="38.8" cy="29.5" r="1.5"/>
		<circle class="st8" cx="83.2" cy="31.5" r="6"/>
		<circle class="st5" cx="85.2" cy="29.5" r="1.5"/>
		<rect x="51" y="75" class="st9" width="18" height="25.5"/>
		<circle class="st0" cx="60" cy="84.2" r="4.5"/>
		<line class="st10" x1="57" y1="95.8" x2="63" y2="95.8"/>
		<line class="st10" x1="56" y1="93.8" x2="64" y2="93.8"/>
		<line class="st10" x1="56" y1="91.8" x2="64" y2="91.8"/>
		<path class="st2" d="M91.9,97.5c0-10.3,0.3-26-1.4-38.7"/>
		<path class="st2" d="M28.1,97.5c0-10.3-0.4-26,1.4-38.7"/>
		<rect y="0" class="st11" width="120" height="120"/>
	</g>
</g>
</svg>
