<?xml version="1.0" encoding="utf-8"?>
<!-- Generator: Adobe Illustrator 23.1.1, SVG Export Plug-In . SVG Version: 6.00 Build 0)  -->
<svg version="1.1" id="圖層_1" xmlns="http://www.w3.org/2000/svg" xmlns:xlink="http://www.w3.org/1999/xlink" x="0px" y="0px"
	 viewBox="0 0 120 120" style="enable-background:new 0 0 120 120;" xml:space="preserve">
<style type="text/css">
	.st0{fill:#6ACC6C;}
	.st1{fill:#6ACC6C;stroke:#111111;stroke-width:3;stroke-linecap:round;stroke-linejoin:round;}
	.st2{fill:#5FB861;}
	.st3{fill:none;stroke:#111111;stroke-width:3;stroke-linecap:round;stroke-linejoin:round;}
	.st4{fill:none;}
	.st5{fill:#FFFFFF;}
	.st6{fill:#FFFFDC;}
	.st7{fill:#EBEBCA;}
	.st8{fill:none;stroke:#EBEBCA;stroke-width:2;stroke-linecap:round;stroke-linejoin:round;}
	.st9{fill:#111111;}
	.st10{fill:#22ACB6;}
	.st11{fill:#22ACB6;stroke:#111111;stroke-width:3;stroke-linecap:round;stroke-linejoin:round;}
	.st12{fill:#DEE1EB;}
	.st13{fill:#CBCDD6;}
	.st14{fill:none;stroke:#FFFFFF;stroke-linecap:round;stroke-linejoin:round;}
</style>
<title>frog_icon</title>
<g>
	<g>
		<path class="st0" d="M37.4,85.6c-23.4,2.7-13.6-22.3-8.1-26.9l7.4-2.1l7.9,17.5L37.4,85.6z"/>
		<path class="st1" d="M31,73.5c2.7,0.5,5.3,1.2,7.9,2.2"/>
		<path class="st0" d="M82.6,85.6c23.4,2.7,13.6-22.3,8.1-26.9l-7.4-2.1l-7.9,17.5L82.6,85.6z"/>
		<path class="st1" d="M89,73.5c-2.7,0.5-5.3,1.2-7.9,2.2"/>
		<path class="st2" d="M40,81.5H24c0.8,1.3,2,2.3,3.4,3h10.7L40,81.5z"/>
		<path class="st2" d="M80,81.5l1.9,3h10.7c1.4-0.7,2.6-1.7,3.4-3H80z"/>
		<path class="st3" d="M37.4,85.6c-23.4,2.7-13.6-22.3-8.1-26.9l7.4-2.1l7.9,17.5L37.4,85.6z"/>
		<path class="st3" d="M82.6,85.6c23.4,2.7,13.6-22.3,8.1-26.9l-7.4-2.1l-7.9,17.5L82.6,85.6z"/>
		<rect y="0" class="st4" width="120" height="120"/>
		<path class="st1" d="M93,38.5c3.9-5.4,2.6-12.9-2.8-16.7s-12.9-2.6-16.7,2.8c-0.4,0.6-0.8,1.2-1.1,1.9c-8.2-1.8-16.6-1.8-24.8,0
			c-2.8-6-10-8.6-16-5.8s-8.6,10-5.8,16c0.3,0.7,0.7,1.3,1.1,1.9c-1.9,2.6-3,5.8-3,9C24,60,40.1,40,60,40s36,20,36,7.6
			C96,44.3,94.9,41.2,93,38.5z"/>
		<circle class="st5" cx="83.2" cy="31.5" r="7.5"/>
		<circle class="st5" cx="36.8" cy="31.5" r="7.5"/>
		<path class="st6" d="M60,40.1c-19.9,0-36,19.9-36,7.5C24,60,40.1,67.5,60,67.5S96,60,96,47.6C96,60,79.9,40.1,60,40.1z"/>
		<path class="st7" d="M91.9,51.4c-6,6.4-18,10.1-31.9,10.1s-25.9-3.7-31.9-10.1c-2.6,0.7-4.1-0.1-4.1-3.8C24,60,40.1,67.5,60,67.5
			S96,60,96,47.6C96,51.3,94.5,52.1,91.9,51.4z"/>
		<path class="st3" d="M60,40.1c-19.9,0-36,19.9-36,7.5C24,60,40.1,67.5,60,67.5S96,60,96,47.6C96,60,79.9,40.1,60,40.1z"/>
		<path class="st8" d="M63.5,45c-2.3-0.6-4.8-0.6-7.1,0"/>
		<circle class="st9" cx="36.8" cy="31.5" r="6"/>
		<circle class="st5" cx="38.8" cy="29.5" r="1.5"/>
		<circle class="st9" cx="83.2" cy="31.5" r="6"/>
		<circle class="st5" cx="85.2" cy="29.5" r="1.5"/>
		<rect x="22" y="94.5" class="st10" width="76" height="6"/>
		<rect x="12" y="84.5" class="st11" width="96" height="10"/>
		<polyline class="st3" points="22,100.5 22,94.5 98,94.5 98,100.5 		"/>
		<path class="st12" d="M86.1,84.5H33.9v-28c0-1.5,1.2-2.7,2.7-2.7h46.9c1.5,0,2.7,1.2,2.7,2.7C86.1,56.5,86.1,84.5,86.1,84.5z"/>
		<rect x="33.9" y="81.5" class="st13" width="52.2" height="3"/>
		<path class="st3" d="M86.1,84.5H33.9v-28c0-1.5,1.2-2.7,2.7-2.7h46.9c1.5,0,2.7,1.2,2.7,2.7C86.1,56.5,86.1,84.5,86.1,84.5z"/>
		<path class="st14" d="M64.5,71.3c-0.7-0.7-1.1-1.7-1.1-2.8v-1.5c0,0,0.1,0,0.1-0.1c0.5-0.5,0.5-1.4,0-1.9c0,0,0,0,0,0
			c-0.5-0.5-1.4-0.5-1.9,0c-0.5,0.5-0.5,1.4,0,1.9c0,0,0,0,0,0c0,0,0.1,0.1,0.1,0.1V68c0,0.4-0.3,0.7-0.8,0.7
			c-0.2,0-0.4-0.1-0.5-0.2l-1.3-1.3c0.1-0.5-0.1-1-0.6-1.3c-0.6-0.4-1.5-0.2-1.9,0.4c-0.4,0.5-0.3,1.2,0.2,1.7
			c0.3,0.3,0.7,0.4,1.1,0.4l1.3,1.3c0.3,0.3,0.3,0.8,0,1.1C59.2,70.9,59,71,58.8,71h-0.9l-0.1-0.2c-0.5-0.5-1.4-0.5-1.9,0
			c-0.5,0.5-0.5,1.4,0,1.9c0.5,0.5,1.4,0.5,1.9,0l0.1-0.2h1.5c1,0,2,0.4,2.8,1.1"/>
	</g>
</g>
</svg>
