<?xml version="1.0" encoding="utf-8"?>
<!-- Generator: Adobe Illustrator 22.0.1, SVG Export Plug-In . SVG Version: 6.00 Build 0)  -->
<svg version="1.1" id="圖層_1" xmlns="http://www.w3.org/2000/svg" xmlns:xlink="http://www.w3.org/1999/xlink" x="0px" y="0px"
	 viewBox="0 0 56 56" style="enable-background:new 0 0 56 56;" xml:space="preserve">
<style type="text/css">
	.st0{fill:none;}
	.st1{fill:none;stroke:#6ACC6C;stroke-width:3;stroke-linecap:round;stroke-linejoin:round;}
</style>
<title>資產 6@1x</title>
<rect class="st0" width="56" height="56"/>
<path class="st1" d="M46,36.5c-2.9-2.9-4.6-6.9-4.6-11v-5.9c0.2-0.1,0.4-0.3,0.6-0.5c2.1-2.1,2.1-5.5,0-7.6c-2.1-2-5.5-2-7.6,0
	c-2.1,2.1-2.1,5.5,0,7.6c0.2,0.2,0.4,0.3,0.6,0.5v3.5c0,1.7-1.3,3-3,3c-0.8,0-1.6-0.3-2.1-0.9l-5.4-5.4c0.4-2.9-1.6-5.7-4.6-6.1
	c-1.3-0.2-2.6,0.1-3.7,0.8c-2.5,1.6-3.2,4.9-1.7,7.4c1.1,1.8,3.2,2.7,5.3,2.4l5.4,5.4c1.2,1.1,1.2,3,0.1,4.2
	C24.8,34.7,24,35,23.1,35h-3.5c-0.1-0.2-0.3-0.4-0.5-0.6c-2.1-2.1-5.5-2.1-7.6,0c-2,2.1-2,5.5,0,7.6c2.1,2.1,5.5,2.1,7.6,0
	c0.2-0.2,0.3-0.4,0.5-0.6h5.8c4.1,0,8.1,1.6,11,4.6"/>
</svg>
