<?xml version="1.0" encoding="utf-8"?>
<!-- Generator: Adobe Illustrator 23.1.1, SVG Export Plug-In . SVG Version: 6.00 Build 0)  -->
<svg version="1.1" id="圖層_1" xmlns="http://www.w3.org/2000/svg" xmlns:xlink="http://www.w3.org/1999/xlink" x="0px" y="0px"
	 viewBox="0 0 120 120" style="enable-background:new 0 0 120 120;" xml:space="preserve">
<style type="text/css">
	.st0{fill:#6ACC6C;stroke:#111111;stroke-width:3;stroke-linecap:round;stroke-linejoin:round;}
	.st1{fill:#FFFFFF;}
	.st2{fill:#FFFFDC;}
	.st3{fill:#E1E1E1;}
	.st4{fill:none;stroke:#111111;stroke-width:3;stroke-linecap:round;stroke-linejoin:round;}
	.st5{fill:none;stroke:#EBEBCA;stroke-width:2;stroke-linecap:round;stroke-linejoin:round;}
	.st6{fill:#111111;}
	.st7{fill:none;}
	.st8{fill:#22ACB6;stroke:#111111;stroke-width:3;stroke-linecap:round;stroke-linejoin:round;}
	.st9{fill:none;stroke:#6ACC6C;stroke-width:3;stroke-linecap:round;stroke-linejoin:round;}
	.st10{fill:none;stroke:#6ACC6C;stroke-width:2;stroke-linecap:round;stroke-linejoin:round;}
</style>
<title>frog_icon</title>
<g>
	<path class="st0" d="M93,38.5c3.9-5.4,2.6-12.9-2.8-16.7s-12.9-2.6-16.7,2.8c-0.4,0.6-0.8,1.2-1.1,1.9c-8.2-1.8-16.6-1.8-24.8,0
		c-2.8-6-10-8.6-16-5.8s-8.6,10-5.8,16c0.3,0.7,0.7,1.3,1.1,1.9c-1.9,2.6-3,5.8-3,9C24,60,40.1,40,60,40s36,20,36,7.6
		C96,44.3,94.9,41.2,93,38.5z"/>
	<circle class="st1" cx="83.2" cy="31.5" r="7.5"/>
	<circle class="st1" cx="36.8" cy="31.5" r="7.5"/>
	<path class="st2" d="M60,40.1c-19.9,0-36,19.9-36,7.5C24,60,40.1,67.5,60,67.5S96,60,96,47.6C96,60,79.9,40.1,60,40.1z"/>
	<path class="st3" d="M91.9,51.4c-6,6.4-18,10.1-31.9,10.1s-25.9-3.7-31.9-10.1c-2.6,0.7-4.1-0.1-4.1-3.8C24,60,40.1,67.5,60,67.5
		S96,60,96,47.6C96,51.3,94.5,52.1,91.9,51.4z"/>
	<path class="st4" d="M60,40.1c-19.9,0-36,19.9-36,7.5C24,60,40.1,67.5,60,67.5S96,60,96,47.6C96,60,79.9,40.1,60,40.1z"/>
	<path class="st5" d="M63.5,45c-2.3-0.6-4.8-0.6-7.1,0"/>
	<circle class="st6" cx="36.8" cy="31.5" r="6"/>
	<circle class="st1" cx="38.8" cy="29.5" r="1.5"/>
	<circle class="st6" cx="83.2" cy="31.5" r="6"/>
	<circle class="st1" cx="85.2" cy="29.5" r="1.5"/>
	<rect y="0" class="st7" width="120" height="120"/>
	<rect x="22" y="56.4" class="st1" width="76" height="44.1"/>
	<path class="st8" d="M17,50.4h86c1.1,0,2,0.9,2,2v2c0,1.1-0.9,2-2,2H17c-1.1,0-2-0.9-2-2v-2C15,51.3,15.9,50.4,17,50.4z"/>
	<path class="st0" d="M94.3,49.4c0,1.7,1.3,3,3,3s3-1.3,3-3c0-1.7-1.3-2-3-2S94.3,47.8,94.3,49.4z"/>
	<path class="st0" d="M88.3,49.4c0,1.7,1.3,3,3,3s3-1.3,3-3c0-1.7-1.3-2-3-2S88.3,47.8,88.3,49.4z"/>
	<path class="st0" d="M82.3,49.4c0,1.7,1.3,3,3,3s3-1.3,3-3c0-1.7-1.3-2-3-2S82.3,47.8,82.3,49.4z"/>
	<path class="st0" d="M25.7,49.4c0,1.7-1.3,3-3,3s-3-1.3-3-3c0-1.7,1.4-2,3-2S25.7,47.8,25.7,49.4z"/>
	<path class="st0" d="M31.7,49.4c0,1.7-1.3,3-3,3s-3-1.3-3-3c0-1.7,1.4-2,3-2S31.7,47.8,31.7,49.4z"/>
	<path class="st0" d="M37.7,49.4c0,1.7-1.3,3-3,3s-3-1.3-3-3c0-1.7,1.3-2,3-2S37.7,47.8,37.7,49.4z"/>
	<rect x="22" y="56.4" class="st3" width="76" height="3"/>
	<path class="st9" d="M56.6,89.9h6.7l0,0v2.6c0,1.1-0.9,2-2,2h-2.7c-1.1,0-2-0.9-2-2V89.9L56.6,89.9z"/>
	<path class="st9" d="M68.7,78c0-4.8-3.9-8.7-8.7-8.7s-8.7,3.9-8.7,8.7c0,2.3,0.9,4.5,2.5,6.2c1,1,1.5,2.3,1.5,3.7v2.1h9.3v-2.2
		c0-1.4,0.6-2.7,1.5-3.7C67.8,82.5,68.7,80.3,68.7,78z"/>
	<line class="st10" x1="69.6" y1="68.6" x2="71.1" y2="67"/>
	<line class="st10" x1="48.9" y1="89.2" x2="50.5" y2="87.7"/>
	<line class="st10" x1="69.6" y1="87.7" x2="71.1" y2="89.2"/>
	<line class="st10" x1="48.9" y1="67" x2="50.5" y2="68.6"/>
	<line class="st10" x1="73.5" y1="78.1" x2="75.7" y2="78.1"/>
	<line class="st10" x1="44.3" y1="78.1" x2="46.5" y2="78.1"/>
	<line class="st10" x1="60" y1="64.6" x2="60" y2="62.4"/>
	<path class="st10" d="M58,81.9h3.1c0.9,0,1.7-0.8,1.7-1.7l0,0c0-0.9-0.8-1.7-1.7-1.7c0,0,0,0,0,0h-2.2c-0.9,0-1.7-0.7-1.7-1.7
		c0,0,0,0,0,0l0,0c0-0.9,0.8-1.7,1.7-1.7H62"/>
	<line class="st10" x1="59.9" y1="75.2" x2="59.9" y2="73.6"/>
	<line class="st10" x1="59.9" y1="83.5" x2="59.9" y2="81.9"/>
	<rect x="22" y="97.5" class="st3" width="76" height="3"/>
	<polyline class="st4" points="22,100.5 22,56.4 98,56.4 98,100.5 	"/>
	<line class="st4" x1="18" y1="100.5" x2="102" y2="100.5"/>
</g>
</svg>
