<?xml version="1.0" encoding="utf-8"?>
<!-- Generator: Adobe Illustrator 23.1.1, SVG Export Plug-In . SVG Version: 6.00 Build 0)  -->
<svg version="1.1" id="圖層_1" xmlns="http://www.w3.org/2000/svg" xmlns:xlink="http://www.w3.org/1999/xlink" x="0px" y="0px"
	 viewBox="0 0 120 120" style="enable-background:new 0 0 120 120;" xml:space="preserve">
<style type="text/css">
	.st0{fill:none;stroke:#111111;stroke-width:3;stroke-linecap:round;stroke-linejoin:round;}
	.st1{fill:#6ACC6C;}
	.st2{fill:#22ACB6;stroke:#111111;stroke-width:3;stroke-linecap:round;stroke-linejoin:round;}
	.st3{fill:#FFFFDC;}
	.st4{fill:none;stroke:#111111;stroke-width:2;stroke-linecap:round;stroke-linejoin:round;}
	.st5{fill:#222222;}
	.st6{fill:#6ACC6C;stroke:#111111;stroke-width:3;stroke-linecap:round;stroke-linejoin:round;}
	.st7{fill:#FFFFFF;}
	.st8{fill:#EBEBCA;}
	.st9{fill:none;stroke:#EBEBCA;stroke-width:2;stroke-linecap:round;stroke-linejoin:round;}
	.st10{fill:#111111;}
	.st11{fill:#FFFFFF;stroke:#111111;stroke-width:3;stroke-linecap:round;stroke-linejoin:round;}
	.st12{fill:none;stroke:#6ACC6C;stroke-linecap:round;stroke-linejoin:round;}
	.st13{fill:none;}
	.st14{fill:#555555;stroke:#111111;stroke-width:3;stroke-linecap:round;stroke-linejoin:round;}
	.st15{fill:none;stroke:#111111;stroke-linecap:round;stroke-linejoin:round;}
</style>
<title>frog_icon</title>
<g>
	<path class="st0" d="M31.3,14.4h57.4c5.5,0,10,4.5,10,10v14.7c0,2.5-2,4.5-4.5,4.5H25.8c-2.5,0-4.5-2-4.5-4.5V24.4
		C21.3,18.9,25.8,14.4,31.3,14.4z"/>
	<path class="st1" d="M84.1,40.2v57.3h7.8C91.9,80.6,92.8,49.1,84.1,40.2z"/>
	<path class="st2" d="M21.3,27h6.4l0,0v24.4l0,0h-6.4c-3.5,0-6.4-2.9-6.4-6.4l0,0V33.4C14.9,29.9,17.7,27,21.3,27z"/>
	<path class="st2" d="M92.3,27h6.4c3.5,0,6.4,2.9,6.4,6.4V45c0,3.5-2.9,6.4-6.4,6.4h-6.4l0,0V27L92.3,27z"/>
	<path class="st1" d="M35.9,40.2c-8.8,8.9-7.8,40.3-7.8,57.3h7.8V40.2z"/>
	<rect x="35.9" y="40.3" class="st3" width="48.1" height="57.2"/>
	<polyline class="st0" points="35.9,97.5 35.9,40.3 84.1,40.3 84.1,97.5 	"/>
	<polyline class="st4" points="69,61 60,79 51,61 	"/>
	<path class="st5" d="M60,40.1c-19.9,0-36,19.9-36,7.5C24,60,40.1,67.5,60,67.5S96,60,96,47.6C96,60,79.9,40.1,60,40.1z"/>
	<path class="st6" d="M93,38.5c3.9-5.4,2.6-12.9-2.8-16.7s-12.9-2.6-16.7,2.8c-0.4,0.6-0.8,1.2-1.1,1.9c-8.2-1.8-16.6-1.8-24.8,0
		c-2.8-6-10-8.6-16-5.8s-8.6,10-5.8,16c0.3,0.7,0.7,1.3,1.1,1.9c-1.9,2.6-3,5.8-3,9C24,60,40.1,40,60,40s36,20,36,7.6
		C96,44.3,94.9,41.2,93,38.5z"/>
	<circle class="st7" cx="83.2" cy="31.5" r="7.5"/>
	<circle class="st7" cx="36.8" cy="31.5" r="7.5"/>
	<path class="st3" d="M60,48.1c-19.9,0-36,11.9-36-0.5C24,60,40.1,67.5,60,67.5S96,60,96,47.6C96,60,79.9,48.1,60,48.1z"/>
	<path class="st8" d="M96,48.5c0,0.1,0,0.2,0,0.3s0,0.2,0,0.3c-0.5,3.3-2.6,4.3-5.9,4.1c-6.4,5.3-17.4,8.3-30,8.3s-23.5-3-30-8.3
		c-3.3,0.2-5.4-0.7-5.9-4.1c0-0.1,0-0.2,0-0.3s0-0.2,0-0.3l0,0c0.8,11.9,16.6,19,36,19S95.2,60.4,96,48.5L96,48.5z"/>
	<path class="st0" d="M60,40.1c-19.9,0-36,19.9-36,7.5C24,60,40.1,67.5,60,67.5S96,60,96,47.6C96,60,79.9,40.1,60,40.1z"/>
	<path class="st9" d="M63.5,51c-2.3-0.6-4.8-0.6-7.1,0"/>
	<circle class="st10" cx="36.8" cy="31.5" r="6"/>
	<circle class="st7" cx="38.8" cy="29.5" r="1.5"/>
	<circle class="st10" cx="83.2" cy="31.5" r="6"/>
	<circle class="st7" cx="85.2" cy="29.5" r="1.5"/>
	<rect x="51" y="75" class="st11" width="18" height="25.5"/>
	<circle class="st1" cx="60" cy="84.2" r="4.5"/>
	<line class="st12" x1="57" y1="95.8" x2="63" y2="95.8"/>
	<line class="st12" x1="56" y1="93.8" x2="64" y2="93.8"/>
	<line class="st12" x1="56" y1="91.8" x2="64" y2="91.8"/>
	<path class="st0" d="M91.9,97.5c0-10.3,0.3-26-1.4-38.7"/>
	<path class="st0" d="M28.1,97.5c0-10.3-0.4-26,1.4-38.7"/>
	<rect y="0" class="st13" width="120" height="120"/>
	<path class="st0" d="M98.7,51.4v4.1c0,2.2-1.8,4-4,4H72.6"/>
	<path class="st14" d="M63.5,56h5.6c1.9,0,3.5,1.6,3.5,3.5l0,0c0,1.9-1.6,3.5-3.5,3.5h-5.6c-1.9,0-3.5-1.6-3.5-3.5l0,0
		C60,57.6,61.6,56,63.5,56z"/>
	<line class="st15" x1="69.1" y1="56" x2="69.1" y2="63"/>
	<line class="st15" x1="100.7" y1="27.3" x2="100.7" y2="51.1"/>
	<line class="st15" x1="19.3" y1="27.3" x2="19.3" y2="51.1"/>
</g>
</svg>
